# xmcd
#
# Track frame offsets: 
#        150
#        15071
#        36432
#        57367
#        74743
#        93952
#        111559
#        128354
#        152643
#        172073
#        188874
#        212742
#        231156
#        249397
#
# Disc length: 3648 seconds
#
# Revision: 0
# Processed by: cddbd v1.5.2PL0 Copyright (c) Steve Scherf et al.
# Submitted via: ExactAudioCopyFreeDBPlugin 1.0
#
DISCID=be0e3e0e
DTITLE=Various Artist - Absolutely Develop A Fever
DYEAR=1900
DGENRE=Blues
TTITLE0=Phoenix hairpin
TTITLE1=Beyond the Horizon
TTITLE2=Fond childe
TTITLE3=Needle link thread orginally
TTITLE4=Smoke Gets In Your Eyes
TTITLE5=Meet in a building
TTITLE6=Old Dream Around My Soul
TTITLE7=Skellig
TTITLE8=Apart in the Booth
TTITLE9=Tenderly gather tenderly divide
TTITLE10=Brightly shining
TTITLE11=It is also difficult to leave
TTITLE12=Solicitude of lover
TTITLE13=The month descends madrigal
EXTD=
EXTT0=
EXTT1=
EXTT2=
EXTT3=
EXTT4=
EXTT5=
EXTT6=
EXTT7=
EXTT8=
EXTT9=
EXTT10=
EXTT11=
EXTT12=
EXTT13=
PLAYORDER=
